<svg xmlns="http://www.w3.org/2000/svg" id="uuid-e13b5743-145e-4215-8cc1-a8234d197d96" viewBox="0 0 858.05 134.06"><polygon points="101.84 21 99.67 31.22 120.1 31.22 115.76 51.65 125.98 51.65 132.49 21 101.84 21" style="fill:#40b9ff;"></polygon><polygon points="44.24 51.65 64.67 51.65 69.01 31.22 89.45 31.22 91.62 21 60.97 21 56.63 41.44 36.19 41.44 29.67 72.09 39.89 72.09 44.24 51.65" style="fill:#40b9ff;"></polygon><polygon points="90.98 72.09 101.2 72.09 107.71 41.44 77.06 41.44 74.89 51.65 95.32 51.65 90.98 72.09" style="fill:#40b9ff;"></polygon><polygon points="109.24 82.31 88.81 82.31 84.47 102.74 64.03 102.74 61.86 112.96 92.51 112.96 96.85 92.52 117.29 92.52 123.81 61.87 113.59 61.87 109.24 82.31" style="fill:#40b9ff;"></polygon><polygon points="27.5 82.31 25.33 92.52 45.77 92.52 41.42 112.96 51.64 112.96 58.16 82.31 27.5 82.31" style="fill:#40b9ff;"></polygon><polygon points="66.2 92.52 76.42 92.52 82.93 61.87 52.28 61.87 50.11 72.09 70.55 72.09 66.2 92.52" style="fill:#40b9ff;"></polygon><path d="m343.09,47.69l-3.28,14.99h6.63c3.78,0,6.25-.17,7.42-.51,3.35-.96,5.42-3.28,6.19-6.95.17-.8.27-1.5.27-2.11,0-2.37-1.18-3.95-3.54-4.75-1.42-.44-3.78-.67-7.07-.67h-6.62Zm58.09,26.46h17.33l-2.57-25.55h-.27l-14.49,25.55Zm-124.45-2.42l-3.18,14.6h9.81c6.08,0,9.64-2.39,10.69-7.17.17-.74.27-1.42.27-2.05,0-3.58-2.77-5.38-8.32-5.38h-9.28Zm5.39-24.58l-3.01,13.66h8.32c3.12,0,5.25-.26,6.36-.77,2.47-1.19,4-3.19,4.6-5.97.54-2.39.11-4.21-1.24-5.47-1.06-.96-2.85-1.45-5.39-1.45h-9.64Zm-28.29,50.43l13.47-61.35h34.54c1.1.09,2.05.2,2.84.32,4.06.74,7.17,2.22,9.28,4.44,1.94,2.05,2.91,4.52,2.91,7.43,0,1.03-.13,2.08-.35,3.15-1.59,7.11-7.17,11.78-16.71,14l-.09.17c8.32,1.49,12.47,5.3,12.47,11.44,0,3.87-1.12,7.38-3.35,10.54-2.24,3.16-5.23,5.59-8.98,7.31-3.75,1.7-9.69,2.56-17.81,2.56h-28.21Zm-112.95-19.93h17.5c-.24,1.09-.35,1.98-.35,2.68,0,4.27,2.96,6.4,8.88,6.4s9.84-2.22,10.88-6.65c.11-.54.17-1.06.17-1.53,0-2.01-1.45-3.38-4.36-4.14l-14.54-3.72c-8.25-2.11-12.36-6.19-12.36-12.24,0-1.19.14-2.47.44-3.81,1.21-5.19,4.27-9.43,9.15-12.73,5.51-3.72,12.7-5.59,21.52-5.59,14.76,0,22.13,4.43,22.13,13.29,0,1.46-.24,3.25-.69,5.34h-17.7c.28-1.09.44-1.99.44-2.76,0-3.57-2.27-5.34-6.79-5.34-2.5,0-4.65.58-6.44,1.75-1.8,1.16-2.87,2.63-3.23,4.41-.11.49-.17.95-.17,1.38,0,2.22,1.72,3.75,5.13,4.63l11.06,2.83c4.82,1.24,8.19,2.48,10.1,3.72,3.26,2.05,4.88,5.02,4.88,8.91,0,1.3-.17,2.7-.52,4.21-1.4,6.26-5.14,11.04-11.23,14.35-5.58,3.03-12.51,4.53-20.82,4.53-10.74,0-17.83-2.33-21.25-6.97-1.62-2.17-2.44-4.82-2.44-7.95,0-1.3.2-2.97.61-5.02Zm71.01-41.23h47.93l-2.57,11.72h-30.42l-2.84,12.74h28.65l-2.65,11.72h-28.65l-2.83,13.08h31.12l-2.65,11.88h-48.64l13.53-61.14Zm247.31,0h47.93l-2.57,11.72h-30.42l-2.84,12.74h28.65l-2.65,11.72h-28.65l-2.83,13.08h31.12l-2.65,11.88h-48.64l13.53-61.14Zm-89.4,61.15l38.72-60.86h21.58l11.67,60.88h-19.99l-1.69-12.22h-25.55l-7.07,12.22-17.67-.02h-19.18c-.13-2.27.2-6.86.98-13.81.24-2.44.36-4.09.36-4.99,0-1.87-.49-3.19-1.46-3.94-.98-.77-2.87-1.15-5.7-1.15h-7.43l-5.31,23.89h-17.77l13.53-61.17h29.53c5.07,0,8.43.11,10.08.34,4,.57,6.87,1.91,8.58,4.07,1.59,1.91,2.39,4.32,2.39,7.2,0,1.47-.17,3.02-.54,4.66-1.18,5.25-3.98,9.04-8.4,11.35-2.88,1.52-6.36,2.57-10.43,3.14l-.09.34c4.6.11,7.72,1,9.37,2.62,1.42,1.36,2.13,3.64,2.13,6.86,0,1.07-.09,2.91-.27,5.51-.55,7.57-.66,12.59-.38,15.09Z" style="fill:#fff; fill-rule:evenodd;"></path><path d="m555.47,49.11c-3.19-2.34-6.44-3.51-9.74-3.51-6.63,0-9.94,2.5-9.94,7.51,0,2.12,1.76,4.65,5.28,7.59l6.23,5.28c1.92,1.65,3.26,2.85,4,3.61.74.76,1.53,1.81,2.35,3.16.83,1.35,1.44,2.71,1.86,4.08.41,1.38.62,2.78.62,4.21,0,5.53-2.07,9.85-6.21,12.96s-9.51,4.66-16.11,4.66c-5.42,0-10.54-1.17-15.35-3.51l3.47-10.6c3.69,2.78,7.96,4.17,12.83,4.17,2.94,0,5.38-.62,7.32-1.88s2.91-3.03,2.91-5.34-1.76-4.8-5.28-7.55l-6.48-5.16c-1.98-1.59-3.32-2.75-4.02-3.47-.7-.71-1.44-1.71-2.21-2.99-.77-1.28-1.35-2.59-1.73-3.94-.39-1.35-.58-2.74-.58-4.17,0-5.56,1.84-9.96,5.53-13.2,3.69-3.25,8.51-4.87,14.48-4.87,1.98,0,4.51.23,7.59.68,3.08.45,5.24.97,6.48,1.55l-3.3,10.73Z" style="fill:#40b9ff;"></path><path d="m589.53,61.74h-12.17l-4.46,19.6c-.36,1.57-.54,2.88-.54,3.92,0,3.03,1.71,4.54,5.12,4.54,1.51,0,3.99-.71,7.43-2.14v9.28c-2.97,1.02-7.01,1.53-12.13,1.53-3.36,0-6.05-1.04-8.09-3.14-2.04-2.09-3.05-4.81-3.05-8.17,0-1.1.12-2.19.37-3.26l4.99-22.16h-5.12l1.77-8.29h5.12l1.73-9.04,11.8-4.29-3.09,13.33h12.09l-1.77,8.29Z" style="fill:#40b9ff;"></path><path d="m628.38,81.79c-.19,1.02-.29,2.15-.29,3.38,0,6.05.47,10.21,1.4,12.46h-6.44c-1.93,0-3.36-1.47-4.29-4.42-3.52,3.49-7.91,5.24-13.16,5.24-4.79,0-8.49-1.35-11.12-4.04-2.63-2.7-3.94-6.45-3.94-11.26,0-8.39,2.54-15.58,7.61-21.56,5.08-5.98,11.48-8.97,19.21-8.97s12.83.69,16.13,2.06l-5.12,27.11Zm-11.92-20.75c-4.62,0-8.31,2.21-11.06,6.62-2.75,4.42-4.13,9.5-4.13,15.25,0,4.76,2.34,7.14,7.01,7.14,2.97,0,5.56-1.83,7.78-5.49s4.19-11.22,5.92-22.69c-1.95-.55-3.8-.83-5.53-.83Z" style="fill:#40b9ff;"></path><path d="m669.34,63.92c-2.45-1.82-4.61-2.72-6.48-2.72-2.67,0-5.11,1.16-7.32,3.49-2.21,2.33-3.61,4.99-4.19,7.98l-4.66,24.96h-10.36l8.25-44.19h10.36l-.7,3.84c3.66-3.11,7.7-4.66,12.13-4.66,1.13,0,3.15.26,6.07.78l-3.09,10.52Z" style="fill:#40b9ff;"></path><path d="m702.13,61.74h-12.17l-4.46,19.6c-.36,1.57-.54,2.88-.54,3.92,0,3.03,1.71,4.54,5.12,4.54,1.51,0,3.99-.71,7.43-2.14v9.28c-2.97,1.02-7.01,1.53-12.13,1.53-3.36,0-6.05-1.04-8.09-3.14-2.04-2.09-3.05-4.81-3.05-8.17,0-1.1.12-2.19.37-3.26l4.99-22.16h-5.12l1.77-8.29h5.12l1.73-9.04,11.8-4.29-3.09,13.33h12.09l-1.77,8.29Z" style="fill:#40b9ff;"></path><path d="m738.51,97.67h-10.31l.62-3.22c-3.69,2.67-8.31,4-13.86,4-3.8,0-6.77-1.09-8.93-3.26-2.16-2.17-3.24-5.18-3.24-9.04,0-1.21.15-2.63.45-4.25l5.32-28.47h10.48l-5.24,28.06c-.22,1.18-.33,2.19-.33,3.01,0,3.58,2.01,5.36,6.02,5.36,3.27,0,6.02-1.07,8.23-3.2,2.21-2.13,3.6-4.7,4.15-7.7l4.54-25.54h10.36l-8.25,44.23Z" style="fill:#40b9ff;"></path><path d="m755.65,96.44l-3.3,18.53h-10.31l8.91-47.86c.33-1.76.5-3.53.5-5.32,0-2.42-.25-4.85-.74-7.3l10.07-1.81c.38,1.04.7,2.45.95,4.21,3.82-2.83,7.62-4.25,11.39-4.25,11.8,0,17.7,5.72,17.7,17.16,0,8.39-2.42,15.27-7.26,20.63-4.84,5.36-11.24,8.05-19.19,8.05-3.16,0-6.07-.67-8.71-2.02Zm1.61-8.79c1.35,1.4,3.34,2.1,5.98,2.1,5.42,0,9.57-1.64,12.44-4.93,2.87-3.29,4.31-7.96,4.31-14.01,0-2.81-.87-5.05-2.6-6.75-1.73-1.69-4.11-2.54-7.14-2.54-1.35,0-2.94.45-4.77,1.34-1.83.89-3.2,1.88-4.11,2.95l-4.13,21.83Z" style="fill:#40b9ff;"></path><path d="m822.07,65.53c-3.3-2.89-6.33-4.33-9.08-4.33-1.71,0-3.18.39-4.44,1.18-1.25.78-1.88,1.84-1.88,3.16,0,1.62,1.49,3.19,4.48,4.7,2.98,1.51,5.27,2.72,6.87,3.61,1.59.89,2.9,2.1,3.92,3.63s1.53,3.28,1.53,5.26c0,4.87-1.82,8.71-5.47,11.51-3.64,2.8-8.3,4.21-13.97,4.21-4.84,0-9.57-1.36-14.19-4.08l5.45-9.37c3.44,3.25,6.81,4.87,10.11,4.87,2.09,0,3.82-.52,5.18-1.57,1.36-1.05,2.04-2.46,2.04-4.25,0-1.49-1.29-2.9-3.88-4.25-2.59-1.35-4.87-2.58-6.85-3.69-1.98-1.11-3.49-2.48-4.52-4.08s-1.55-3.39-1.55-5.34c0-4.29,1.71-7.71,5.14-10.25,3.42-2.54,7.63-3.82,12.6-3.82,3.41,0,7.84,1.16,13.29,3.47l-4.79,9.45Z" style="fill:#40b9ff;"></path></svg>